<svg width="82" height="82" viewBox="0 0 82 82" fill="none" xmlns="http://www.w3.org/2000/svg">
<g id="coding 1">
<g id="Group">
<path id="Vector" d="M73.8004 40.9162L58.3208 24.5162C57.4004 23.5122 55.8106 23.4285 54.8065 24.4326C53.8024 25.353 53.7188 26.9428 54.7228 27.9469L68.529 42.6734L54.6392 57.3163C53.7188 58.3203 53.7188 59.9101 54.7228 60.8305C55.2249 61.2489 55.8106 61.4999 56.48 61.4999C57.1494 61.4999 57.8188 61.2489 58.3208 60.7469L73.8004 44.3469C74.7208 43.4265 74.7208 41.9203 73.8004 40.9162Z" fill="#204293"/>
<path id="Vector_2" d="M27.2776 24.4326C26.2735 23.5122 24.6837 23.5122 23.7633 24.5163L8.20007 40.9163C7.27966 41.9204 7.27966 43.4265 8.20007 44.3469L23.6797 60.7469C24.1817 61.2489 24.8511 61.5 25.5205 61.5C26.1062 61.5 26.7756 61.2489 27.2776 60.8306C28.2817 59.9102 28.3654 58.3204 27.3613 57.3163L13.4715 42.6734L27.3613 28.0306C28.2817 27.0265 28.2817 25.4367 27.2776 24.4326Z" fill="#204293"/>
<path id="Vector_3" d="M45.0999 16.0652C43.7611 15.8979 42.4223 16.8183 42.255 18.1571L34.8917 66.353C34.7243 67.6917 35.6448 69.0305 36.9835 69.1979C37.1509 69.1979 37.2346 69.1979 37.4019 69.1979C38.657 69.1979 39.6611 68.2775 39.9121 67.106L47.2754 18.9101C47.359 17.5713 46.4386 16.3162 45.0999 16.0652Z" fill="#204293"/>
</g>
</g>
</svg>
