<svg width="19" height="19" viewBox="0 0 19 19" fill="none" xmlns="http://www.w3.org/2000/svg">
<path id="Mask" fill-rule="evenodd" clip-rule="evenodd" d="M2.12207 8.71924C2.12207 5.41024 4.81307 2.71924 8.12207 2.71924C11.4311 2.71924 14.1221 5.41024 14.1221 8.71924C14.1221 12.0282 11.4311 14.7192 8.12207 14.7192C4.81307 14.7192 2.12207 12.0282 2.12207 8.71924ZM17.8291 17.0122L14.4341 13.6162C15.4871 12.2622 16.1221 10.5652 16.1221 8.71924C16.1221 4.30824 12.5331 0.719238 8.12207 0.719238C3.71107 0.719238 0.12207 4.30824 0.12207 8.71924C0.12207 13.1302 3.71107 16.7192 8.12207 16.7192C9.96807 16.7192 11.6651 16.0842 13.0191 15.0312L16.4151 18.4262C16.6101 18.6212 16.8661 18.7192 17.1221 18.7192C17.3781 18.7192 17.6341 18.6212 17.8291 18.4262C18.2201 18.0352 18.2201 17.4032 17.8291 17.0122Z" fill="#204293"/>
</svg>
